<svg xmlns="http://www.w3.org/2000/svg" width="171.521" height="117.959" viewBox="0 0 171.521 117.959"><defs><style>.a{fill-rule:evenodd;opacity:0.03;}</style></defs><path class="a" d="M5.361,1.322c13.4,0,24.779,9.179,33.24,17.641,2.019,2.019,3.733,3.982,5.391,5.884a5.361,5.361,0,0,1,4.219-2.083H166.171a5.361,5.361,0,0,1,4.272,8.585L140.438,71.363l3.591,6a20.952,20.952,0,0,1,6.03-.973,21.553,21.553,0,1,1-15.233,6.417l-3.947-6.585L80.123,73.1A5.361,5.361,0,0,1,78.8,74.8L52.013,101.63a5.361,5.361,0,0,1-9.139-3.8V40.6a104.006,104.006,0,0,0-11.831-14.04C23.423,18.945,13.4,12.043,5.361,12.043-1.788,12.043-1.788,1.322,5.361,1.322ZM155.409,33.484H53.594V55.763a4.837,4.837,0,0,0,1.821,3.089,10.013,10.013,0,0,0,4.512,2.293c.009,0,.033,0,.042,0L131.423,65.5ZM53.594,70.285V84.847L66.231,72.242l-7.37-.45q-.221-.012-.44-.042A18.033,18.033,0,0,1,53.594,70.285Zm96.465,16.825A10.721,10.721,0,1,0,160.79,97.83,10.64,10.64,0,0,0,150.059,87.109Zm.01,5.35a5.36,5.36,0,1,1-5.36,5.36A5.36,5.36,0,0,1,150.069,92.459Z" transform="translate(0 -1.322)"/></svg>