<svg xmlns="http://www.w3.org/2000/svg" width="143.468" height="143.469" viewBox="0 0 143.468 143.469"><defs><style>.a{opacity:0.1;}</style></defs><g class="a" transform="translate(0.001 0)"><g transform="translate(64.748 85.448)"><path d="M300.448,308.443l-2.681-2.681a2.8,2.8,0,0,0-3.963,0l-9.511,9.511a2.8,2.8,0,0,0,0,3.963l2.681,2.681a12.89,12.89,0,0,1-18.229,18.23l-32.892-32.892a2.8,2.8,0,0,0-3.963,3.963l32.892,32.892a18.494,18.494,0,0,0,26.155-26.155l-.7-.7,5.548-5.548.7.7a26.34,26.34,0,0,1-37.251,37.251l-23.381-23.381a2.8,2.8,0,1,0-3.963,3.963l23.381,23.381a31.945,31.945,0,0,0,45.176-45.177Z" transform="translate(-231.07 -304.942)"/></g><g transform="translate(85.448 0)"><g transform="translate(0 0)"><path d="M353.621,9.341a31.981,31.981,0,0,0-45.177,0l-2.681,2.681a2.8,2.8,0,0,0,0,3.963l9.511,9.511a2.8,2.8,0,0,0,3.963,0l2.68-2.681a12.89,12.89,0,0,1,18.229,18.229L307.256,73.935a2.8,2.8,0,1,0,3.963,3.963L344.11,45.007a18.494,18.494,0,0,0-26.155-26.155l-.7.7L311.708,14l.7-.7a26.34,26.34,0,0,1,37.251,37.251L316.767,83.446a2.8,2.8,0,1,0,3.963,3.963l32.892-32.892A31.981,31.981,0,0,0,353.621,9.341Z" transform="translate(-304.943 0)"/></g></g><g transform="translate(-0.001 0)"><g transform="translate(0 0)"><path d="M50.555,13.3,75.3,38.048a2.8,2.8,0,0,0,3.963-3.963L54.518,9.341A31.945,31.945,0,0,0,9.341,54.518L12.021,57.2a2.8,2.8,0,0,0,3.963,0L25.5,47.688a2.8,2.8,0,0,0,0-3.963l-2.681-2.681A12.89,12.89,0,0,1,41.044,22.815L73.935,55.707A2.8,2.8,0,1,0,77.9,51.744L45.007,18.853A18.494,18.494,0,0,0,18.852,45.008l.7.7L14,51.255l-.7-.7A26.34,26.34,0,1,1,50.555,13.3Z" transform="translate(0.001 0)"/></g></g><g transform="translate(0 55.237)"><g transform="translate(0)"><path d="M57.2,269.374l-9.511-9.511a2.8,2.8,0,0,0-3.963,0l-2.68,2.681a12.89,12.89,0,0,1-18.229-18.229l32.892-32.891a2.8,2.8,0,1,0-3.963-3.963L18.853,240.352a18.494,18.494,0,0,0,26.155,26.155l.7-.7,5.548,5.548-.7.7A26.34,26.34,0,0,1,13.305,234.8L46.2,201.912a2.8,2.8,0,0,0-3.963-3.963L9.342,230.841a31.944,31.944,0,0,0,45.176,45.176l2.681-2.681a2.8,2.8,0,0,0,0-3.963Z" transform="translate(0 -197.128)"/></g></g><g transform="translate(82.626 41.411)"><path d="M299.653,148.608a2.8,2.8,0,1,0,.821,1.981A2.823,2.823,0,0,0,299.653,148.608Z" transform="translate(-294.87 -147.787)"/></g><g transform="translate(55.237 96.451)"><path d="M202.277,345.393l-.364-.364a2.8,2.8,0,1,0-3.963,3.963l.364.364a2.8,2.8,0,0,0,3.963-3.963Z" transform="translate(-197.129 -344.208)"/></g></g></svg>