<svg xmlns="http://www.w3.org/2000/svg" width="235.598" height="108.765" viewBox="0 0 235.598 108.765"><defs><style>.a{fill:none;stroke:#000;stroke-miterlimit:10;stroke-width:3px;opacity:0.06;}</style></defs><path class="a" d="M258.311,144.155h-5.04s-3.12-8.451-10.081-8.451H231.67s-11.641-1.86-14.761,23.581l-5.9-.02-57.491.088a4.223,4.223,0,0,1-3.991-4.088V143.5a4.225,4.225,0,0,1,4.376-3.938h14.7V90.222a5.584,5.584,0,0,1,4.584-5.179,130.429,130.429,0,0,1,28.794,2.779c3.84.96,9.684,20.4,9.684,20.4s37.482,2.64,43.483,8.16l1.221,13.441s1.449,1.885,1.929,2.605S258.311,144.155,258.311,144.155Zm-144.967-4.588c4.56,3.622,6.24,10.624,6.24,10.624H149.53V143.5a4.225,4.225,0,0,1,4.376-3.938Zm-74.215,1.645c.894-.675.292-1.645-1.628-1.645H28.14c-.928,0-2.235.266-2.235,1.067V148.3c0,.8,1.307,1.9,2.235,1.9h5.04S34.878,144.424,39.129,141.213Zm16.552-.828a17.1,17.1,0,1,0,17.1,17.1A17.1,17.1,0,0,0,55.682,140.385Zm0,6.812a10.289,10.289,0,1,0,10.289,10.289A10.289,10.289,0,0,0,55.682,147.2Zm41.762-6.812a17.1,17.1,0,1,0,17.1,17.1A17.1,17.1,0,0,0,97.444,140.385Zm0,6.812a10.289,10.289,0,1,0,10.289,10.289A10.289,10.289,0,0,0,97.444,147.2Zm140.647-4.367a13.817,13.817,0,1,0,13.817,13.817A13.816,13.816,0,0,0,238.09,142.829Zm0,6.147a7.67,7.67,0,1,0,7.67,7.67A7.67,7.67,0,0,0,238.09,148.976Zm-38.317-48.193-1.252-4.8c-.83-1.81-1.8-2.88-3.392-2.88l-16.211-.96a3.048,3.048,0,0,0-3.07,2.88v37.442a3.328,3.328,0,0,0,3.259,3h19.2a2.8,2.8,0,0,0,2.651-3V105.343Zm-23.683,9.81H201.2M168.6,89.5c0-1.591-.748-2.572-2.338-2.572h-3.84c-1.59,0-3.238.981-3.238,2.572v50.065H168.6Zm-4.588-20.681h-.483V86.93h.483Z" transform="translate(-24.405 -67.321)"/></svg>