<svg xmlns="http://www.w3.org/2000/svg" width="133.4" height="133.4" viewBox="0 0 133.4 133.4"><defs><style>.a{opacity:0.06;}.b{fill:#010101;}</style></defs><g class="a"><g transform="translate(83.375 56.278)"><path class="b" d="M322.084,216A2.082,2.082,0,0,0,320,218.084v35.434a2.084,2.084,0,1,0,4.169,0V218.084A2.082,2.082,0,0,0,322.084,216Z" transform="translate(-320 -216)"/></g><g transform="translate(123.022 108.387)"><path class="b" d="M480.462,416h-6.209a2.084,2.084,0,1,0,0,4.169h6.209a2.084,2.084,0,1,0,0-4.169Z" transform="translate(-472.168 -416)"/></g><g transform="translate(129.231 108.387)"><path class="b" d="M498.084,416A2.082,2.082,0,0,0,496,418.084v8.337a2.084,2.084,0,1,0,4.169,0v-8.337A2.082,2.082,0,0,0,498.084,416Z" transform="translate(-496 -416)"/></g><g transform="translate(4.169 116.725)"><path class="b" d="M32.675,448h-.006l-14.591.044a2.084,2.084,0,0,0,.006,4.169h.006l14.591-.044A2.084,2.084,0,0,0,32.675,448Z" transform="translate(-16 -448)"/></g><g transform="translate(125.062 97.965)"><path class="b" d="M484.169,376h-2.084a2.084,2.084,0,1,0,0,4.169h2.084a2.084,2.084,0,1,0,0-4.169Z" transform="translate(-480 -376)"/></g><g transform="translate(127.147 83.375)"><path class="b" d="M490.084,320A2.083,2.083,0,0,0,488,322.084V347.1a2.084,2.084,0,0,0,4.169,0V322.084A2.082,2.082,0,0,0,490.084,320Z" transform="translate(-488 -320)"/></g><g transform="translate(83.375 56.278)"><path class="b" d="M353.35,216H322.084a2.084,2.084,0,1,0,0,4.169H353.35a2.084,2.084,0,1,0,0-4.169Z" transform="translate(-320 -216)"/></g><g transform="translate(114.64 56.278)"><path class="b" d="M456.482,244.307l-12.506-27.1a2.084,2.084,0,0,0-3.785,1.747l12.506,27.1a2.085,2.085,0,0,0,1.895,1.211,2.084,2.084,0,0,0,1.891-2.958Z" transform="translate(-439.999 -215.999)"/></g><g transform="translate(4.169 108.387)"><path class="b" d="M18.084,416A2.082,2.082,0,0,0,16,418.084v8.469a2.084,2.084,0,0,0,4.169,0v-8.469A2.082,2.082,0,0,0,18.084,416Z" transform="translate(-16 -416)"/></g><g transform="translate(0 81.29)"><path class="b" d="M2.084,312A2.082,2.082,0,0,0,0,314.084v27.1a2.084,2.084,0,1,0,4.169,0v-27.1A2.082,2.082,0,0,0,2.084,312Z" transform="translate(0 -312)"/></g><g transform="translate(0 81.29)"><path class="b" d="M85.459,312H2.084a2.084,2.084,0,1,0,0,4.169H85.459a2.084,2.084,0,1,0,0-4.169Z" transform="translate(0 -312)"/></g><g transform="translate(0 108.387)"><path class="b" d="M12.506,416H2.084a2.084,2.084,0,1,0,0,4.169H12.506a2.084,2.084,0,1,0,0-4.169Z" transform="translate(0 -416)"/></g><g transform="translate(18.759 104.219)"><path class="b" d="M86.591,400a14.591,14.591,0,1,0,14.591,14.591A14.609,14.609,0,0,0,86.591,400Zm0,25.012a10.422,10.422,0,1,1,10.422-10.422A10.434,10.434,0,0,1,86.591,425.012Z" transform="translate(-72 -400)"/></g><g transform="translate(27.097 112.556)"><path class="b" d="M110.253,432a6.253,6.253,0,1,0,6.253,6.253A6.261,6.261,0,0,0,110.253,432Zm0,8.337a2.084,2.084,0,1,1,2.084-2.084A2.085,2.085,0,0,1,110.253,440.337Z" transform="translate(-104 -432)"/></g><g transform="translate(95.881 112.556)"><path class="b" d="M374.253,432a6.253,6.253,0,1,0,6.253,6.253A6.261,6.261,0,0,0,374.253,432Zm0,8.337a2.084,2.084,0,1,1,2.084-2.084A2.085,2.085,0,0,1,374.253,440.337Z" transform="translate(-368 -432)"/></g><g transform="translate(87.544 104.219)"><path class="b" d="M350.591,400a14.591,14.591,0,1,0,14.591,14.591A14.609,14.609,0,0,0,350.591,400Zm0,25.012a10.422,10.422,0,1,1,10.422-10.422A10.434,10.434,0,0,1,350.591,425.012Z" transform="translate(-336 -400)"/></g><g transform="translate(43.772 116.725)"><path class="b" d="M213.908,448H170.084a2.084,2.084,0,1,0,0,4.169h43.824a2.084,2.084,0,1,0,0-4.169Z" transform="translate(-168 -448)"/></g><g transform="translate(112.556 116.725)"><path class="b" d="M450.759,448H434.084a2.084,2.084,0,0,0,0,4.169h16.675a2.084,2.084,0,0,0,0-4.169Z" transform="translate(-432 -448)"/></g><g transform="translate(102.134 83.375)"><path class="b" d="M419.1,320H394.084a2.084,2.084,0,1,0,0,4.169H419.1a2.084,2.084,0,1,0,0-4.169Z" transform="translate(-392 -320)"/></g><g transform="translate(93.797 75.037)"><path class="b" d="M370.422,296.337a6.261,6.261,0,0,1-6.253-6.253,2.084,2.084,0,0,0-4.169,0,10.434,10.434,0,0,0,10.422,10.422,2.084,2.084,0,0,0,0-4.169Z" transform="translate(-360 -288)"/></g><g transform="translate(93.797 56.278)"><path class="b" d="M362.084,216A2.082,2.082,0,0,0,360,218.084v18.759a2.084,2.084,0,1,0,4.169,0V218.084A2.082,2.082,0,0,0,362.084,216Z" transform="translate(-360 -216)"/></g><g transform="translate(89.628 31.266)"><path class="b" d="M346.084,120A2.082,2.082,0,0,0,344,122.084v8.338a2.084,2.084,0,1,0,4.169,0v-8.338A2.082,2.082,0,0,0,346.084,120Z" transform="translate(-344 -120)"/></g><g transform="translate(8.337 35.136)"><path class="b" d="M34.084,134.856A2.082,2.082,0,0,0,32,136.94v46.154a2.084,2.084,0,0,0,4.169,0V136.94A2.082,2.082,0,0,0,34.084,134.856Z" transform="translate(-32 -134.856)"/></g><g transform="translate(83.375 35.136)"><path class="b" d="M322.084,134.856A2.083,2.083,0,0,0,320,136.94v46.154a2.084,2.084,0,0,0,4.169,0V136.94A2.082,2.082,0,0,0,322.084,134.856Z" transform="translate(-320 -134.856)"/></g><g transform="translate(2.083 0)"><path class="b" d="M98.832,31.653,55.06.388a2.085,2.085,0,0,0-2.422,0L8.866,31.653a2.084,2.084,0,1,0,2.424,3.391l42.561-30.4,42.561,30.4a2.083,2.083,0,0,0,2.42-3.391Z" transform="translate(-7.993 0)"/></g><g transform="translate(2.083 8.337)"><path class="b" d="M98.832,63.653,55.06,32.388a2.085,2.085,0,0,0-2.422,0L8.866,63.653a2.084,2.084,0,0,0,2.424,3.391l42.561-30.4,42.561,30.4a2.083,2.083,0,0,0,2.42-3.391Z" transform="translate(-7.993 -32)"/></g><g transform="translate(2.084 31.266)"><path class="b" d="M10.084,120A2.082,2.082,0,0,0,8,122.084v8.338a2.084,2.084,0,1,0,4.169,0v-8.338A2.082,2.082,0,0,0,10.084,120Z" transform="translate(-8 -120)"/></g><g transform="translate(52.109 56.278)"><path class="b" d="M202.084,216A2.082,2.082,0,0,0,200,218.084V243.1a2.084,2.084,0,0,0,4.169,0V218.084A2.082,2.082,0,0,0,202.084,216Z" transform="translate(-200 -216)"/></g><g transform="translate(39.603 56.278)"><path class="b" d="M166.591,216H154.084a2.084,2.084,0,1,0,0,4.169h12.506a2.084,2.084,0,1,0,0-4.169Z" transform="translate(-152 -216)"/></g><g transform="translate(39.603 56.278)"><path class="b" d="M154.084,216A2.082,2.082,0,0,0,152,218.084V243.1a2.084,2.084,0,0,0,4.169,0V218.084A2.082,2.082,0,0,0,154.084,216Z" transform="translate(-152 -216)"/></g><g transform="translate(16.675 45.856)"><path class="b" d="M80.675,176H66.084A2.082,2.082,0,0,0,64,178.084v14.591a2.082,2.082,0,0,0,2.084,2.084H80.675a2.082,2.082,0,0,0,2.084-2.084V178.084A2.082,2.082,0,0,0,80.675,176Zm-2.084,14.591H68.169V180.169H78.591Z" transform="translate(-64 -176)"/></g><g transform="translate(60.447 45.856)"><path class="b" d="M248.675,176H234.084A2.082,2.082,0,0,0,232,178.084v14.591a2.082,2.082,0,0,0,2.084,2.084h14.591a2.082,2.082,0,0,0,2.084-2.084V178.084A2.082,2.082,0,0,0,248.675,176Zm-2.084,14.591H236.169V180.169h10.422Z" transform="translate(-232 -176)"/></g><g transform="translate(39.603 27.097)"><path class="b" d="M160.337,104a8.337,8.337,0,1,0,8.337,8.337A8.346,8.346,0,0,0,160.337,104Zm0,12.506a4.169,4.169,0,1,1,4.169-4.169A4.173,4.173,0,0,1,160.337,116.506Z" transform="translate(-152 -104)"/></g></g></svg>