<svg xmlns="http://www.w3.org/2000/svg" width="145.487" height="145.877" viewBox="0 0 145.487 145.877"><path d="M73.744.834,1,44.48V146.711H146.487V44.48Zm49.278,131.56v-2.11a11.751,11.751,0,0,1,9.386-11.5v2.11A11.755,11.755,0,0,1,123.022,132.394Zm-14.079-11.5v-2.11a11.753,11.753,0,0,1,9.386,11.5v2.11A11.751,11.751,0,0,1,108.942,120.9Zm28.159,0v-7.04h-2.347a16.419,16.419,0,0,0-14.079,8.009,16.419,16.419,0,0,0-14.079-8.009h-2.347v7.04a16.364,16.364,0,0,0,4.954,11.733H99.556V90.393h42.238v42.238h-9.647A16.364,16.364,0,0,0,137.1,120.9Zm-61.011,11.5v-2.11a11.751,11.751,0,0,1,9.386-11.5v2.11A11.755,11.755,0,0,1,76.09,132.394ZM62.011,120.9v-2.11a11.753,11.753,0,0,1,9.386,11.5v2.11A11.751,11.751,0,0,1,62.011,120.9Zm28.159,0v-7.04H87.823a16.419,16.419,0,0,0-14.079,8.009,16.419,16.419,0,0,0-14.079-8.009H57.318v7.04a16.364,16.364,0,0,0,4.954,11.733H52.625V90.393H94.863v42.238H85.216A16.364,16.364,0,0,0,90.17,120.9Zm-61.011,11.5v-2.11a11.751,11.751,0,0,1,9.386-11.5v2.11A11.755,11.755,0,0,1,29.159,132.394ZM15.079,120.9v-2.11a11.753,11.753,0,0,1,9.386,11.5v2.11A11.751,11.751,0,0,1,15.079,120.9Zm28.159,0v-7.04H40.892a16.419,16.419,0,0,0-14.079,8.009,16.419,16.419,0,0,0-14.079-8.009H10.386v7.04a16.364,16.364,0,0,0,4.954,11.733H5.693V90.393H47.931v42.238H38.285A16.364,16.364,0,0,0,43.238,120.9ZM94.863,48.155V85.7H52.625V48.155Zm-40.6-4.693L73.744,8.4l19.479,35.06Zm-5.367,0H11.82L67.438,10.089Zm-.967,4.693V85.7H5.693V48.155ZM99.556,85.7V48.155h42.238V85.7Zm-.967-42.238L80.049,10.089l55.618,33.373Zm-92.9,98.556v-4.693h136.1v4.693Z" transform="translate(-1 -0.834)"/></svg>