<svg xmlns="http://www.w3.org/2000/svg" width="159.142" height="129.375" viewBox="0 0 159.142 129.375"><defs><style>.a{opacity:0.06;}</style></defs><g class="a" transform="translate(-2.499 -8.485)"><path d="M62.613,27.313H13.225a.97.97,0,0,0,0,1.94H62.613a.97.97,0,1,0,0-1.94Z" transform="translate(14.503 27.988)"/><path d="M62.613,31.169H13.225a.97.97,0,0,0,0,1.94H62.613a.97.97,0,1,0,0-1.94Z" transform="translate(14.503 33.721)"/><path d="M62.613,35.024H13.225a.97.97,0,0,0,0,1.94H62.613a.97.97,0,1,0,0-1.94Z" transform="translate(14.503 39.452)"/><path d="M24.894,47.72a9.691,9.691,0,1,0,9.741,9.691A9.727,9.727,0,0,0,24.894,47.72Zm0,15.652a5.961,5.961,0,1,1,6.011-5.96A5.992,5.992,0,0,1,24.894,63.372Z" transform="translate(18.811 58.325)"/><path d="M59.067,47.72a9.691,9.691,0,1,0,9.741,9.691A9.727,9.727,0,0,0,59.067,47.72Zm0,15.652a5.961,5.961,0,1,1,6.011-5.96A5.992,5.992,0,0,1,59.067,63.372Z" transform="translate(69.612 58.325)"/><path d="M159.775,134.13h-18.8a22.01,22.01,0,0,0,9.455-22.629h9.342a1.865,1.865,0,0,0,1.865-1.89c-.69-51.1.229,16.906-.548-40.448a6.856,6.856,0,0,0-6.838-6.771h-4.662l-6.9-15.35a6.6,6.6,0,0,0-5.918-3.821H114.023a6.51,6.51,0,0,0-6.464,6.464V74.626H93.734l10.066-37.3a3.452,3.452,0,0,1,3.3-2.467h17.964a6.454,6.454,0,0,0,6.452-7.018h0a6.656,6.656,0,0,0-6.721-5.908H103.6A11.775,11.775,0,0,0,92.35,30.351L88.623,43.1c.1-.763.209-1.52.24-2.313.185-4.644-1.532-19.129-4.523-22.041-3.008-2.932-7.065-.509-9.066-1.325-2.576-1.046-2.588-4.922-13-4.147-5.471.415-6.284-.009-9.6-2.224C40.453,2.915,40.184,16.6,36.317,18.1c-1.929.743-5.794-1.282-8.427,1.771-2.034,2.36-.517,4.034-7.539,5.069-2.388.353-5.095.753-7.318,2.512C9.561,30.2,7.546,36.432,10.1,43.223H4.364a1.866,1.866,0,0,0-1.778,2.431L15.7,86.812A1.864,1.864,0,0,0,17.333,88.1l11.775.92v10.1a22.037,22.037,0,0,0,2.3,35H4.366a1.865,1.865,0,0,0,0,3.73H159.775a1.865,1.865,0,1,0,0-3.73Zm-31.1,0a18.394,18.394,0,1,1,18.443-18.394A18.44,18.44,0,0,1,128.68,134.13Zm20.662-26.359a22.157,22.157,0,0,0-41.325,0h-4.751l6.585-17.955a3.122,3.122,0,0,1,2.919-2.039h31.82a3.12,3.12,0,0,1,2.918,2.039l6.585,17.955Zm-84.974,0A22.125,22.125,0,0,0,60,100.785h41.854l-2.562,6.986ZM129.51,46.953h7.262c.016,0,.03.006.046.007a2.841,2.841,0,0,1,2.459,1.6L145.505,62.4h-16V46.953Zm-15.487,0h11.758V62.4H111.289V49.7A2.765,2.765,0,0,1,114.023,46.95ZM15.347,30.373c1.441-1.14,3.436-1.435,5.549-1.747,11.451-1.689,7.594-6.792,11.249-6.792,4.768,0,6.643,1.193,10.408-5.736,2.623-4.826,3.466-5,8.052-1.944,4.011,2.671,5.588,3.32,11.953,2.839,9.148-.679,7.091,2.173,11.315,3.884,3.087,1.256,6.59-.705,7.865.54,1.3,1.27,3.634,13.313,3.4,19.222a24.634,24.634,0,0,1-.256,2.584H14.124C12.044,38.8,12.063,32.972,15.347,30.373ZM6.915,46.953h83.07a1.864,1.864,0,0,0,1.79-1.342L95.93,31.4a8.028,8.028,0,0,1,7.668-5.736h21.2a2.945,2.945,0,0,1,3,2.491,2.729,2.729,0,0,1-2.734,2.976H107.1a7.212,7.212,0,0,0-6.89,5.188L85.8,89.711,18.875,84.484ZM32.837,89.316,87.051,93.55c.05,0,.1.006.147.006A1.865,1.865,0,0,0,89,92.177l3.73-13.822h16.7a1.865,1.865,0,0,0,1.865-1.865V66.128c12.266,0,28.759,0,42.967-.006a3.08,3.08,0,0,1,3.108,3.084l.023,1.69h-8.4a1.865,1.865,0,0,0-1.865,1.865v7.908a1.865,1.865,0,0,0,1.865,1.865h8.56l.335,24.731-6.87-18.732a6.863,6.863,0,0,0-6.419-4.484H112.77a6.864,6.864,0,0,0-6.42,4.484l-3.126,8.523H55.532a22.055,22.055,0,0,0-22.695-.581V89.316ZM157.49,78.8h-6.641V74.626h6.588ZM25.262,115.736A18.443,18.443,0,1,1,43.706,134.13,18.44,18.44,0,0,1,25.262,115.736ZM56.006,134.13A22.01,22.01,0,0,0,65.461,111.5h41.463a22.008,22.008,0,0,0,9.455,22.629Z"/></g></svg>