<svg xmlns="http://www.w3.org/2000/svg" width="128.705" height="128.705" viewBox="0 0 128.705 128.705"><defs><style>.a{opacity:0.06;}</style></defs><g transform="translate(84 -30.333)"><g class="a" transform="translate(-84 30.333)"><path d="M126.694,124.683H123.42L77.752,85.251a16.087,16.087,0,0,0,2.689-8.879c0-.008,0-.012,0-.02V64.365a2.011,2.011,0,0,0,0-4.022H69.348V19.014A12.077,12.077,0,0,0,76.415,8.082c0-.014.008-.026.008-.04V2.011A2.009,2.009,0,0,0,74.412,0H54.293a2.009,2.009,0,0,0-2.011,2.011V8.044c0,.014.008.026.008.04a12.077,12.077,0,0,0,7,10.9V60.343H48.268a2.011,2.011,0,0,0,0,4.022V76.352c0,.008,0,.012,0,.02a16.057,16.057,0,0,0,2.745,8.959L5.287,124.683H2.011a2.011,2.011,0,0,0,0,4.022H126.694a2.011,2.011,0,0,0,0-4.022ZM56.3,6.033V4.022H72.4V6.033Zm.292,4.022H72.111a8,8,0,0,1-15.515,0ZM64.353,20.11c.328,0,.652-.024.973-.048v4.07H63.317V20.058C63.659,20.086,64,20.11,64.353,20.11Zm-1.036,8.044h2.009V60.343H63.317ZM52.291,76.415V64.365H76.415v12.05a12.048,12.048,0,0,1-1.738,6.18L65.76,74.9a2.013,2.013,0,0,0-2.626,0l-9.05,7.789A12.049,12.049,0,0,1,52.291,76.415Zm2.771,10.737s.006,0,.008-.006,0,0,.006-.006l9.369-8.066,9.263,8,0,0h0l43.557,37.608H11.451Z" transform="translate(0 0)"/><path d="M48.047,59h-.022a2.022,2.022,0,1,0,.022,0Z" transform="translate(46.533 59.65)"/><path d="M50.049,57h-.022a2.022,2.022,0,1,0,.022,0Z" transform="translate(48.557 57.626)"/><path d="M52.051,59h-.022a2.022,2.022,0,1,0,.022,0Z" transform="translate(50.581 59.65)"/></g></g></svg>