<svg xmlns="http://www.w3.org/2000/svg" width="196.512" height="122.192" viewBox="0 0 196.512 122.192"><defs><style>.a{opacity:0.06;}</style></defs><path class="a" d="M191.733,59.8,183.3,42.539c-3.128-6.411-11.172-11.44-18.306-11.44H141.868a13.858,13.858,0,0,0-7.365,2.143V27.286A21.108,21.108,0,0,0,113.424,6.2H45.615A21.119,21.119,0,0,0,24.524,27.286v8.848H18.013v6.611H70.5V36.134H31.128V27.286a14.5,14.5,0,0,1,14.48-14.48h67.822A14.49,14.49,0,0,1,127.9,27.286v76.707H89.517a21.054,21.054,0,0,0-41.6,0H45.615a14.5,14.5,0,0,1-14.48-14.48V74.142h21.59v-6.6H.23v6.6H24.518V89.513A21.127,21.127,0,0,0,45.609,110.6H47.92a21.054,21.054,0,0,0,41.6,0h50.226a21.054,21.054,0,0,0,41.6,0h1.433a13.987,13.987,0,0,0,13.969-13.969V81.519A57.822,57.822,0,0,0,191.733,59.8ZM68.725,121.77a14.474,14.474,0,1,1,14.48-14.48A14.5,14.5,0,0,1,68.725,121.77ZM163.85,37.692H165c4.573,0,10.356,3.614,12.374,7.739L185.795,62.7a38.553,38.553,0,0,1,1.863,4.841h-23.8V37.692Zm-3.309,84.078a14.474,14.474,0,1,1,14.48-14.48A14.49,14.49,0,0,1,160.542,121.77Zm29.6-25.141a7.383,7.383,0,0,1-7.365,7.365H181.34a21.054,21.054,0,0,0-41.6,0h-5.234V45.069a7.386,7.386,0,0,1,7.365-7.377h15.371V70.839a3.289,3.289,0,0,0,3.3,3.3h28.767a41.316,41.316,0,0,1,.829,7.377Z" transform="translate(-0.23 -6.195)"/></svg>