<svg xmlns="http://www.w3.org/2000/svg" width="187.122" height="116.344" viewBox="0 0 187.122 116.344"><defs><style>.a{opacity:0.06;}</style></defs><g class="a" transform="translate(-34.24 -2721.191)"><g transform="translate(34.24 2721.191)"><path d="M1376.581,2725.293a21.029,21.029,0,0,1,20.876,18.451h6.513v-22.586a11.039,11.039,0,0,0-11.021-11h-10a2.573,2.573,0,0,1-2.576-2.576v-25.062c0-6.562-6.117-11-12.283-11h-22.66v72.215h10.3C1357.314,2733.169,1365.733,2725.293,1376.581,2725.293Zm-152.005-8.84h13.719a26.708,26.708,0,0,1-10.9-21.446v-9.014a26.7,26.7,0,0,1,18.475-25.334v-7.083a2.558,2.558,0,0,1,2.575-2.575h70.109a2.558,2.558,0,0,1,2.576,2.575v8.667a26.68,26.68,0,0,1,14.611,23.75v9.014a26.629,26.629,0,0,1-10.921,21.446h15.429v-47.5a2.574,2.574,0,0,1,2.576-2.576h25.26c9.014,0,17.459,6.736,17.459,16.147v22.486h7.4a16.219,16.219,0,0,1,16.172,16.146v25.161a2.574,2.574,0,0,1-2.576,2.576h-9.089a21.022,21.022,0,0,1-41.728,0c-11.268,0-22.536-.075-33.8-.075a21.026,21.026,0,0,1-41.753,0h-2.452a21.04,21.04,0,0,1-41.778,0h-11.367a2.589,2.589,0,0,1-2.575-2.575v-27.216A2.573,2.573,0,0,1,1224.576,2716.453Zm152.005,13.992a15.874,15.874,0,1,0,15.874,15.874v-.619h0v-.124l-.025-.074v-.2h0l-.074-.792h0A15.885,15.885,0,0,0,1376.581,2730.445Zm-60.6-71.074v-3.219h-64.958v3.219ZM1254,2716.453h55.126a21.525,21.525,0,0,0,21.471-21.446v-9.014a21.524,21.524,0,0,0-21.471-21.447H1254a21.5,21.5,0,0,0-21.446,21.447v9.014A21.519,21.519,0,0,0,1254,2716.453Zm18.7,29.866a15.862,15.862,0,1,0-15.849,15.874A15.828,15.828,0,0,0,1272.693,2746.319Zm5-2.649h2.5c3.071-24.344,38.633-24.368,41.7,0h18.351V2721.6h-113.1v22.065h8.816a21.032,21.032,0,0,1,41.728,0Zm39.227,2.649a15.874,15.874,0,1,0-15.874,15.874A15.84,15.84,0,0,0,1316.923,2746.319Z" transform="translate(-1222 -2651)"/><path d="M6394.576,3566h14.883c6.464,0,10.6,6.24,10.6,12.184v21.743a2.6,2.6,0,0,1-2.576,2.6h-22.906a2.594,2.594,0,0,1-2.576-2.6v-31.353A2.588,2.588,0,0,1,6394.576,3566Zm14.883,5.15h-12.283v26.2h17.732v-19.167C6414.908,3575.138,6413,3571.151,6409.459,3571.151Z" transform="translate(-6263.966 -3543.341)"/></g></g></svg>