<svg xmlns="http://www.w3.org/2000/svg" width="93.947" height="57.51" viewBox="0 0 93.947 57.51"><defs><style>.a{fill:none;stroke:#fff;stroke-linecap:round;stroke-linejoin:round;stroke-miterlimit:10;stroke-width:2px;}</style></defs><g transform="matrix(-1, 0, 0, 1, 95.747, -15.4)"><ellipse class="a" cx="6.31" cy="8.095" rx="6.31" ry="8.095" transform="translate(60.492 55.488)"/><ellipse class="a" cx="2.524" cy="3.238" rx="2.524" ry="3.238" transform="translate(64.278 60.345)"/><ellipse class="a" cx="6.31" cy="8.095" rx="6.31" ry="8.095" transform="translate(75.817 55.488)"/><ellipse class="a" cx="2.524" cy="3.238" rx="2.524" ry="3.238" transform="translate(79.603 60.345)"/><rect class="a" width="91.947" height="4.857" transform="translate(2.8 49.012)"/><rect class="a" width="2.524" height="13.184" transform="translate(92.223 53.869)"/><path class="a" d="M31.2,32.6v9.946h6.31c0-4.626,2.885-8.1,6.31-8.1,3.606,0,6.31,3.7,6.31,8.1h2.524c0-4.626,2.885-8.1,6.31-8.1,3.606,0,6.31,3.7,6.31,8.1H69.06V32.6Z" transform="translate(22.802 21.269)"/><rect class="a" width="2.524" height="13.184" transform="translate(2.8 35.828)"/><rect class="a" width="2.524" height="13.184" transform="translate(92.223 35.828)"/><ellipse class="a" cx="1.983" cy="2.544" rx="1.983" ry="2.544" transform="translate(21.37 66.821)"/><path class="a" d="M14.2,45.784v0Z" transform="translate(9.153 21.269)"/><g transform="translate(12.083 16.4)"><ellipse class="a" cx="5.048" cy="6.476" rx="5.048" ry="6.476" transform="translate(12.171 19.428)"/><ellipse class="a" cx="1.983" cy="2.544" rx="1.983" ry="2.544" transform="translate(15.236 23.36)"/><ellipse class="a" cx="5.048" cy="6.476" rx="5.048" ry="6.476" transform="translate(53.096 19.428)"/><ellipse class="a" cx="1.983" cy="2.544" rx="1.983" ry="2.544" transform="translate(56.161 23.36)"/><path class="a" d="M78.894,27.271l-7.752-1.156-5.769-7.4A6,6,0,0,0,61.045,16.4H43.2a9.3,9.3,0,0,0-4.687,1.85L27.873,27.733h0L12.548,30.509a4.625,4.625,0,0,0-3.245,3.7L8.041,39.3c-.361,1.619.361,3.238,1.8,3.238H20.12c0-3.7,2.344-6.476,5.048-6.476s5.048,3.007,5.048,6.476H60.865c0-3.7,2.344-6.476,5.048-6.476,2.885,0,5.048,3.007,5.048,6.476h7.752c1.442,0,2.524-1.388,2.524-3.238V31.2C81.418,29.121,80.336,27.5,78.894,27.271Z" transform="translate(-7.949 -16.4)"/><path class="a" d="M21.8,25.633H54.072L50.285,18H30.274Z" transform="translate(3.172 -14.299)"/><path class="a" d="M31.2,18v0Z" transform="translate(10.719 -14.299)"/><path class="a" d="M36.8,23.4h0Z" transform="translate(15.215 -7.21)"/><path class="a" d="M45.9,23.4h0Z" transform="translate(22.521 -7.21)"/><path class="a" d="M13.628,24.8h0Z" transform="translate(-7.587 -5.372)"/><path class="a" d="M27.6,23.4h0Z" transform="translate(7.828 -7.21)"/></g></g></svg>