<svg xmlns="http://www.w3.org/2000/svg" width="87.201" height="59.97" viewBox="0 0 87.201 59.97"><defs><style>.a{fill:#fff;fill-rule:evenodd;}</style></defs><path class="a" d="M2.725,1.322c6.813,0,12.6,4.667,16.9,8.969,1.027,1.027,1.9,2.024,2.741,2.991a2.725,2.725,0,0,1,2.145-1.059h59.97a2.725,2.725,0,0,1,2.172,4.365L71.4,36.931l1.826,3.05a10.652,10.652,0,0,1,3.066-.495,10.958,10.958,0,1,1-7.744,3.263L66.539,39.4l-25.8-1.586a2.725,2.725,0,0,1-.671.862L26.443,52.319A2.725,2.725,0,0,1,21.8,50.387V21.293a52.877,52.877,0,0,0-6.015-7.138C11.908,10.282,6.813,6.773,2.725,6.773A2.725,2.725,0,1,1,2.725,1.322ZM79.009,17.673H27.247V29a2.459,2.459,0,0,0,.926,1.57,5.091,5.091,0,0,0,2.294,1.166h.021L66.815,33.95ZM27.247,36.383v7.4l6.424-6.409-3.747-.229q-.112-.006-.224-.021A9.168,9.168,0,0,1,27.247,36.383ZM76.29,44.936a5.45,5.45,0,1,0,5.456,5.45A5.409,5.409,0,0,0,76.29,44.936Zm.005,2.72a2.725,2.725,0,1,1-2.725,2.725A2.725,2.725,0,0,1,76.295,47.656Z" transform="translate(0 -1.322)"/></svg>