<svg xmlns="http://www.w3.org/2000/svg" width="65.923" height="116.933" viewBox="0 0 65.923 116.933"><defs><style>.a,.b{fill:#fff;}.a{font-size:16px;font-family:AllRoundGothicW03-Demi, All Round Gothic W03;font-weight:300;}</style></defs><g transform="translate(-277 -638.067)"><g transform="translate(-28 58)"><text class="a" transform="translate(337 676)"><tspan x="-26.08" y="0">HOME </tspan><tspan x="-31.952" y="17">MOVING</tspan></text></g><g transform="translate(277 638.067)"><g transform="translate(41.202 27.811)"><path class="b" d="M321.03,216a1.029,1.029,0,0,0-1.03,1.03v17.511a1.03,1.03,0,1,0,2.06,0V217.03A1.029,1.029,0,0,0,321.03,216Z" transform="translate(-320 -216)"/></g><g transform="translate(60.795 53.563)"><path class="b" d="M476.266,416H473.2a1.03,1.03,0,0,0,0,2.06h3.069a1.03,1.03,0,1,0,0-2.06Z" transform="translate(-472.168 -416)"/></g><g transform="translate(63.863 53.563)"><path class="b" d="M497.03,416a1.029,1.029,0,0,0-1.03,1.03v4.12a1.03,1.03,0,1,0,2.06,0v-4.12A1.029,1.029,0,0,0,497.03,416Z" transform="translate(-496 -416)"/></g><g transform="translate(2.06 57.683)"><path class="b" d="M24.24,448h0l-7.21.022a1.03,1.03,0,0,0,0,2.06h0l7.21-.022a1.03,1.03,0,0,0,0-2.06Z" transform="translate(-16 -448)"/></g><g transform="translate(61.803 48.412)"><path class="b" d="M482.06,376h-1.03a1.03,1.03,0,1,0,0,2.06h1.03a1.03,1.03,0,0,0,0-2.06Z" transform="translate(-480 -376)"/></g><g transform="translate(62.833 41.202)"><path class="b" d="M489.03,320a1.029,1.029,0,0,0-1.03,1.03v12.361a1.03,1.03,0,0,0,2.06,0V321.03A1.029,1.029,0,0,0,489.03,320Z" transform="translate(-488 -320)"/></g><g transform="translate(41.202 27.811)"><path class="b" d="M336.481,216H321.03a1.03,1.03,0,0,0,0,2.06h15.451a1.03,1.03,0,0,0,0-2.06Z" transform="translate(-320 -216)"/></g><g transform="translate(56.653 27.811)"><path class="b" d="M448.145,229.988l-6.18-13.391a1.03,1.03,0,0,0-1.871.863l6.18,13.391a1.03,1.03,0,0,0,1.871-.863Z" transform="translate(-439.999 -215.999)"/></g><g transform="translate(2.06 53.563)"><path class="b" d="M17.03,416A1.029,1.029,0,0,0,16,417.03v4.185a1.03,1.03,0,1,0,2.06,0V417.03A1.029,1.029,0,0,0,17.03,416Z" transform="translate(-16 -416)"/></g><g transform="translate(0 40.172)"><path class="b" d="M1.03,312A1.029,1.029,0,0,0,0,313.03v13.391a1.03,1.03,0,1,0,2.06,0V313.03A1.029,1.029,0,0,0,1.03,312Z" transform="translate(0 -312)"/></g><g transform="translate(0 40.172)"><path class="b" d="M42.232,312H1.03a1.03,1.03,0,1,0,0,2.06h41.2a1.03,1.03,0,1,0,0-2.06Z" transform="translate(0 -312)"/></g><g transform="translate(0 53.563)"><path class="b" d="M6.18,416H1.03a1.03,1.03,0,1,0,0,2.06H6.18a1.03,1.03,0,1,0,0-2.06Z" transform="translate(0 -416)"/></g><g transform="translate(9.27 51.503)"><path class="b" d="M79.21,400a7.21,7.21,0,1,0,7.21,7.21A7.22,7.22,0,0,0,79.21,400Zm0,12.361a5.15,5.15,0,1,1,5.15-5.15A5.156,5.156,0,0,1,79.21,412.361Z" transform="translate(-72 -400)"/></g><g transform="translate(13.391 55.623)"><path class="b" d="M107.09,432a3.09,3.09,0,1,0,3.09,3.09A3.094,3.094,0,0,0,107.09,432Zm0,4.12a1.03,1.03,0,1,1,1.03-1.03A1.03,1.03,0,0,1,107.09,436.12Z" transform="translate(-104 -432)"/></g><g transform="translate(47.382 55.623)"><path class="b" d="M371.09,432a3.09,3.09,0,1,0,3.09,3.09A3.094,3.094,0,0,0,371.09,432Zm0,4.12a1.03,1.03,0,1,1,1.03-1.03A1.03,1.03,0,0,1,371.09,436.12Z" transform="translate(-368 -432)"/></g><g transform="translate(43.262 51.503)"><path class="b" d="M343.21,400a7.21,7.21,0,1,0,7.21,7.21A7.22,7.22,0,0,0,343.21,400Zm0,12.361a5.15,5.15,0,1,1,5.15-5.15A5.156,5.156,0,0,1,343.21,412.361Z" transform="translate(-336 -400)"/></g><g transform="translate(21.631 57.683)"><path class="b" d="M190.687,448H169.03a1.03,1.03,0,0,0,0,2.06h21.657a1.03,1.03,0,1,0,0-2.06Z" transform="translate(-168 -448)"/></g><g transform="translate(55.623 57.683)"><path class="b" d="M441.27,448h-8.24a1.03,1.03,0,0,0,0,2.06h8.24a1.03,1.03,0,1,0,0-2.06Z" transform="translate(-432 -448)"/></g><g transform="translate(50.472 41.202)"><path class="b" d="M405.391,320H393.03a1.03,1.03,0,0,0,0,2.06h12.361a1.03,1.03,0,1,0,0-2.06Z" transform="translate(-392 -320)"/></g><g transform="translate(46.352 37.082)"><path class="b" d="M365.15,292.12a3.094,3.094,0,0,1-3.09-3.09,1.03,1.03,0,0,0-2.06,0,5.156,5.156,0,0,0,5.15,5.15,1.03,1.03,0,1,0,0-2.06Z" transform="translate(-360 -288)"/></g><g transform="translate(46.352 27.811)"><path class="b" d="M361.03,216a1.029,1.029,0,0,0-1.03,1.03v9.27a1.03,1.03,0,1,0,2.06,0v-9.27A1.029,1.029,0,0,0,361.03,216Z" transform="translate(-360 -216)"/></g><g transform="translate(44.292 15.451)"><path class="b" d="M345.03,120a1.029,1.029,0,0,0-1.03,1.03v4.12a1.03,1.03,0,1,0,2.06,0v-4.12A1.029,1.029,0,0,0,345.03,120Z" transform="translate(-344 -120)"/></g><g transform="translate(4.12 17.364)"><path class="b" d="M33.03,134.856a1.029,1.029,0,0,0-1.03,1.03v22.808a1.03,1.03,0,1,0,2.06,0V135.886A1.029,1.029,0,0,0,33.03,134.856Z" transform="translate(-32 -134.856)"/></g><g transform="translate(41.202 17.364)"><path class="b" d="M321.03,134.856a1.029,1.029,0,0,0-1.03,1.03v22.808a1.03,1.03,0,1,0,2.06,0V135.886A1.029,1.029,0,0,0,321.03,134.856Z" transform="translate(-320 -134.856)"/></g><g transform="translate(1.029 0)"><path class="b" d="M52.884,15.642,31.253.192a1.03,1.03,0,0,0-1.2,0L8.425,15.642a1.03,1.03,0,1,0,1.2,1.676L30.655,2.3,51.688,17.318a1.029,1.029,0,0,0,1.2-1.676Z" transform="translate(-7.993 0)"/></g><g transform="translate(1.029 4.12)"><path class="b" d="M52.884,47.642,31.253,32.192a1.031,1.031,0,0,0-1.2,0L8.425,47.642a1.03,1.03,0,0,0,1.2,1.676L30.655,34.3,51.688,49.318a1.029,1.029,0,0,0,1.2-1.676Z" transform="translate(-7.993 -32)"/></g><g transform="translate(1.03 15.451)"><path class="b" d="M9.03,120A1.029,1.029,0,0,0,8,121.03v4.12a1.03,1.03,0,1,0,2.06,0v-4.12A1.029,1.029,0,0,0,9.03,120Z" transform="translate(-8 -120)"/></g><g transform="translate(25.751 27.811)"><path class="b" d="M201.03,216a1.029,1.029,0,0,0-1.03,1.03v12.361a1.03,1.03,0,1,0,2.06,0V217.03A1.029,1.029,0,0,0,201.03,216Z" transform="translate(-200 -216)"/></g><g transform="translate(19.571 27.811)"><path class="b" d="M159.21,216h-6.18a1.03,1.03,0,1,0,0,2.06h6.18a1.03,1.03,0,0,0,0-2.06Z" transform="translate(-152 -216)"/></g><g transform="translate(19.571 27.811)"><path class="b" d="M153.03,216a1.029,1.029,0,0,0-1.03,1.03v12.361a1.03,1.03,0,1,0,2.06,0V217.03A1.029,1.029,0,0,0,153.03,216Z" transform="translate(-152 -216)"/></g><g transform="translate(8.24 22.661)"><path class="b" d="M72.24,176H65.03A1.029,1.029,0,0,0,64,177.03v7.21a1.029,1.029,0,0,0,1.03,1.03h7.21a1.029,1.029,0,0,0,1.03-1.03v-7.21A1.029,1.029,0,0,0,72.24,176Zm-1.03,7.21H66.06v-5.15h5.15Z" transform="translate(-64 -176)"/></g><g transform="translate(29.871 22.661)"><path class="b" d="M240.24,176h-7.21a1.029,1.029,0,0,0-1.03,1.03v7.21a1.029,1.029,0,0,0,1.03,1.03h7.21a1.029,1.029,0,0,0,1.03-1.03v-7.21A1.029,1.029,0,0,0,240.24,176Zm-1.03,7.21h-5.15v-5.15h5.15Z" transform="translate(-232 -176)"/></g><g transform="translate(19.571 13.391)"><path class="b" d="M156.12,104a4.12,4.12,0,1,0,4.12,4.12A4.124,4.124,0,0,0,156.12,104Zm0,6.18a2.06,2.06,0,1,1,2.06-2.06A2.062,2.062,0,0,1,156.12,110.18Z" transform="translate(-152 -104)"/></g></g></g></svg>