<svg xmlns="http://www.w3.org/2000/svg" width="41.514" height="55.2" viewBox="0 0 41.514 55.2"><defs><style>.a{fill:#eaaf30;}</style></defs><g transform="translate(-14.875)"><path class="a" d="M93.49,53.565A53.266,53.266,0,0,0,107.368,55.2a53.261,53.261,0,0,0,13.877-1.635c4.565-1.289,6.88-3.156,6.88-5.548s-2.315-4.258-6.88-5.548a43.281,43.281,0,0,0-7.223-1.3c5.24-8.944,10.432-19.07,10.432-24.079a17.087,17.087,0,0,0-34.174,0c0,5.008,5.192,15.135,10.432,24.078a43.263,43.263,0,0,0-7.223,1.3c-4.565,1.289-6.88,3.156-6.88,5.548S88.926,52.276,93.49,53.565ZM107.368,3.676a13.426,13.426,0,0,1,13.411,13.41c0,3.8-4.7,13.755-12.571,26.634a.983.983,0,0,1-1.679,0C98.656,30.841,93.957,20.885,93.957,17.087A13.426,13.426,0,0,1,107.368,3.676ZM95.157,45.828a44.682,44.682,0,0,1,7.648-1.154q.295.486.586.963a4.659,4.659,0,0,0,7.952,0q.291-.477.586-.963a44.681,44.681,0,0,1,7.648,1.154c3.36.856,4.587,1.819,4.839,2.189-.252.37-1.48,1.334-4.839,2.189a51.581,51.581,0,0,1-12.21,1.317,51.579,51.579,0,0,1-12.21-1.317c-3.36-.856-4.587-1.819-4.839-2.189C90.571,47.647,91.8,46.684,95.157,45.828Z" transform="translate(-71.736)"/><path class="a" d="M213.689,80.688a6.868,6.868,0,1,0-6.868,6.868A6.876,6.876,0,0,0,213.689,80.688Zm-10.06,0a3.192,3.192,0,1,1,3.192,3.192A3.2,3.2,0,0,1,203.629,80.688Z" transform="translate(-171.189 -64.774)"/></g></svg>