<svg xmlns="http://www.w3.org/2000/svg" width="16.325" height="21.707" viewBox="0 0 16.325 21.707"><defs><style>.a{fill:#eaaf30;}</style></defs><g transform="translate(-14.875)"><path class="a" d="M89.316,21.064a23.485,23.485,0,0,0,10.914,0c1.8-.507,2.705-1.241,2.705-2.182s-.91-1.675-2.705-2.182a17.02,17.02,0,0,0-2.84-.513c2.061-3.517,4.1-7.5,4.1-9.469a6.719,6.719,0,0,0-13.439,0c0,1.969,2.042,5.952,4.1,9.469a17.013,17.013,0,0,0-2.84.513c-1.8.507-2.705,1.241-2.705,2.182S87.521,20.557,89.316,21.064ZM94.774,1.446a5.28,5.28,0,0,1,5.274,5.274c0,1.494-1.848,5.409-4.944,10.474a.387.387,0,0,1-.66,0c-3.1-5.065-4.944-8.98-4.944-10.474A5.28,5.28,0,0,1,94.774,1.446Zm-4.8,16.576a17.571,17.571,0,0,1,3.008-.454l.23.379a1.832,1.832,0,0,0,3.127,0l.231-.379a17.571,17.571,0,0,1,3.008.454,3.691,3.691,0,0,1,1.9.861,3.69,3.69,0,0,1-1.9.861,20.284,20.284,0,0,1-4.8.518,20.283,20.283,0,0,1-4.8-.518,3.69,3.69,0,0,1-1.9-.861A3.692,3.692,0,0,1,89.972,18.022Z" transform="translate(-71.736)"/><path class="a" d="M205.355,76.521a2.7,2.7,0,1,0-2.7,2.7A2.7,2.7,0,0,0,205.355,76.521Zm-3.956,0a1.255,1.255,0,1,1,1.255,1.255A1.257,1.257,0,0,1,201.4,76.521Z" transform="translate(-179.616 -70.263)"/></g></svg>