<svg xmlns="http://www.w3.org/2000/svg" width="100.993" height="47.016" viewBox="0 0 100.993 47.016"><defs><style>.a{fill:none;stroke:#fff;stroke-miterlimit:10;stroke-width:2px;}</style></defs><g transform="translate(1 1)"><path class="a" d="M124.823,100.885h-2.145s-1.328-3.6-4.291-3.6h-4.9s-4.955-.792-6.283,10.037l-2.51-.009-24.47.038a1.8,1.8,0,0,1-1.7-1.74v-5.006a1.8,1.8,0,0,1,1.863-1.676h6.256v-21a2.377,2.377,0,0,1,1.951-2.2,55.514,55.514,0,0,1,12.256,1.183c1.634.409,4.122,8.683,4.122,8.683s15.953,1.124,18.507,3.473l.52,5.721s.617.8.821,1.109A40.645,40.645,0,0,1,124.823,100.885Zm-61.7-1.953a9.352,9.352,0,0,1,2.656,4.522H78.523v-2.846a1.8,1.8,0,0,1,1.863-1.676Zm-31.588.7c.38-.287.124-.7-.693-.7H26.856c-.395,0-.951.113-.951.454v3.261c0,.341.556.807.951.807H29A8.338,8.338,0,0,1,31.534,99.633Zm7.045-.352a7.279,7.279,0,1,0,7.278,7.279A7.279,7.279,0,0,0,38.579,99.28Zm0,2.9a4.379,4.379,0,1,0,4.379,4.379A4.379,4.379,0,0,0,38.579,102.179Zm17.775-2.9a7.279,7.279,0,1,0,7.279,7.279A7.279,7.279,0,0,0,56.354,99.28Zm0,2.9a4.379,4.379,0,1,0,4.379,4.379A4.379,4.379,0,0,0,56.354,102.179Zm59.862-1.859A5.881,5.881,0,1,0,122.1,106.2,5.881,5.881,0,0,0,116.216,100.32Zm0,2.616a3.264,3.264,0,1,0,3.264,3.264A3.264,3.264,0,0,0,116.216,102.937ZM99.907,82.425l-.533-2.043c-.353-.77-.766-1.226-1.444-1.226l-6.9-.409a1.3,1.3,0,0,0-1.307,1.226V95.909a1.417,1.417,0,0,0,1.387,1.276h8.172a1.191,1.191,0,0,0,1.128-1.276V84.366ZM89.827,86.6h10.688M86.641,77.623c0-.677-.318-1.095-1-1.095H84.012a1.262,1.262,0,0,0-1.378,1.095V98.932h4.008Zm-1.953-8.8h-.206v7.708h.206Z" transform="translate(-25.905 -68.821)"/></g></svg>