<svg xmlns="http://www.w3.org/2000/svg" width="19.689" height="13.126" viewBox="0 0 19.689 13.126"><defs><style>.a{fill:#eaaf30;}</style></defs><g transform="translate(0 -85.333)"><g transform="translate(0 85.333)"><path class="a" d="M18.68,85.333H1.01A1.013,1.013,0,0,0,0,86.343V97.45a1.013,1.013,0,0,0,1.01,1.01H18.68a1.013,1.013,0,0,0,1.01-1.01V86.343A1.013,1.013,0,0,0,18.68,85.333Zm-.379.757L10.426,92a1.056,1.056,0,0,1-1.162,0L1.389,86.09Zm-4.207,6.3,4.291,5.3.014.014H1.29l.014-.014,4.291-5.3a.379.379,0,0,0-.589-.477L.757,97.16v-10.6L8.81,92.6a1.807,1.807,0,0,0,2.07,0l8.052-6.039v10.6L14.683,91.91a.379.379,0,0,0-.589.477Z" transform="translate(0 -85.333)"/></g></g></svg>