<svg xmlns="http://www.w3.org/2000/svg" width="57.645" height="38.43" viewBox="0 0 57.645 38.43"><defs><style>.a{fill:#eaaf30;}</style></defs><g transform="translate(0 -85.333)"><g transform="translate(0 85.333)"><path class="a" d="M54.688,85.333H2.956A2.965,2.965,0,0,0,0,88.289v32.517a2.965,2.965,0,0,0,2.956,2.956H54.688a2.965,2.965,0,0,0,2.956-2.956V88.289A2.965,2.965,0,0,0,54.688,85.333ZM53.579,87.55,30.523,104.844a3.091,3.091,0,0,1-3.4,0L4.065,87.55ZM41.263,105.985,53.827,121.5c.013.016.028.027.041.041H3.776c.013-.015.029-.026.041-.041l12.564-15.52a1.109,1.109,0,0,0-1.723-1.4L2.217,119.957V88.936l23.575,17.681a5.291,5.291,0,0,0,6.06,0L55.427,88.936v31.021l-12.44-15.368a1.109,1.109,0,0,0-1.723,1.4Z" transform="translate(0 -85.333)"/></g></g></svg>