<svg xmlns="http://www.w3.org/2000/svg" width="64.962" height="65.136" viewBox="0 0 64.962 65.136"><defs><style>.a{fill:#fff;}</style></defs><path class="a" d="M33.481.834,1,20.323V65.97H65.962V20.323Zm22,58.743v-.942A5.247,5.247,0,0,1,59.675,53.5v.942A5.249,5.249,0,0,1,55.484,59.577ZM49.2,54.444V53.5a5.248,5.248,0,0,1,4.191,5.133v.942A5.247,5.247,0,0,1,49.2,54.444Zm12.573,0V51.3H60.723a7.331,7.331,0,0,0-6.287,3.576A7.331,7.331,0,0,0,48.15,51.3H47.1v3.143a7.307,7.307,0,0,0,2.212,5.239H45.006V40.823h18.86v18.86H59.559A7.306,7.306,0,0,0,61.771,54.444ZM34.529,59.577v-.942A5.247,5.247,0,0,1,38.72,53.5v.942A5.249,5.249,0,0,1,34.529,59.577Zm-6.287-5.133V53.5a5.248,5.248,0,0,1,4.191,5.133v.942A5.247,5.247,0,0,1,28.242,54.444Zm12.573,0V51.3H39.767a7.331,7.331,0,0,0-6.287,3.576A7.331,7.331,0,0,0,27.194,51.3H26.146v3.143a7.307,7.307,0,0,0,2.212,5.239H24.051V40.823h18.86v18.86H38.6A7.307,7.307,0,0,0,40.815,54.444ZM13.573,59.577v-.942A5.247,5.247,0,0,1,17.764,53.5v.942A5.249,5.249,0,0,1,13.573,59.577ZM7.287,54.444V53.5a5.248,5.248,0,0,1,4.191,5.133v.942A5.247,5.247,0,0,1,7.287,54.444Zm12.573,0V51.3H18.812a7.331,7.331,0,0,0-6.287,3.576A7.331,7.331,0,0,0,6.239,51.3H5.191v3.143A7.307,7.307,0,0,0,7.4,59.683H3.1V40.823h18.86v18.86H17.648A7.307,7.307,0,0,0,19.86,54.444ZM42.911,21.963V38.728H24.051V21.963Zm-18.127-2.1,8.7-15.655,8.7,15.655Zm-2.4,0H5.831l24.834-14.9Zm-.432,2.1V38.728H3.1V21.963ZM45.006,38.728V21.963h18.86V38.728Zm-.432-18.86L36.3,4.966l24.834,14.9ZM3.1,63.874v-2.1H63.866v2.1Z" transform="translate(-1 -0.834)"/></svg>