<svg xmlns="http://www.w3.org/2000/svg" width="53.694" height="53.772" viewBox="0 0 53.694 53.772"><defs><style>.a{fill:#eaaf30;}</style></defs><g transform="translate(-0.344 -3.19)"><g transform="translate(0.344 3.19)"><path class="a" d="M42.8,57.606a5.289,5.289,0,0,0-3.836-1.759,5.469,5.469,0,0,0-3.881,1.748L31.5,61.169c-.3-.159-.59-.306-.874-.454-.409-.2-.794-.4-1.124-.6a38.978,38.978,0,0,1-9.34-8.512A23,23,0,0,1,17.1,46.767c.931-.851,1.793-1.736,2.633-2.588.318-.318.636-.647.953-.965a5.207,5.207,0,0,0,0-7.854l-3.1-3.1c-.352-.352-.715-.715-1.055-1.078-.681-.7-1.4-1.43-2.134-2.111a5.372,5.372,0,0,0-3.8-1.668,5.559,5.559,0,0,0-3.859,1.668l-.023.023L2.854,32.99A8.3,8.3,0,0,0,.391,38.267a19.9,19.9,0,0,0,1.453,8.421,48.865,48.865,0,0,0,8.682,14.481A53.408,53.408,0,0,0,28.31,75.095,27.708,27.708,0,0,0,38.3,78.045c.238.011.488.023.715.023a8.552,8.552,0,0,0,6.548-2.815c.011-.023.034-.034.045-.057a25.8,25.8,0,0,1,1.986-2.054c.488-.465.987-.953,1.475-1.464a5.662,5.662,0,0,0,1.714-3.927,5.454,5.454,0,0,0-1.748-3.893Zm4.063,11.951c-.011,0-.011.011,0,0-.443.477-.9.908-1.385,1.385a29.839,29.839,0,0,0-2.19,2.27,5.471,5.471,0,0,1-4.267,1.8c-.17,0-.352,0-.522-.011a24.615,24.615,0,0,1-8.852-2.656A50.414,50.414,0,0,1,12.9,59.229,46.075,46.075,0,0,1,4.727,45.621a16.2,16.2,0,0,1-1.271-7.1,5.21,5.21,0,0,1,1.566-3.371l3.87-3.87a2.58,2.58,0,0,1,1.725-.806,2.428,2.428,0,0,1,1.657.794l.034.034c.692.647,1.351,1.316,2.043,2.031.352.363.715.726,1.078,1.1l3.1,3.1a2.166,2.166,0,0,1,0,3.518c-.329.329-.647.658-.976.976C16.6,43,15.69,43.908,14.7,44.793c-.023.023-.045.034-.057.057a2.315,2.315,0,0,0-.59,2.576l.034.1a24.874,24.874,0,0,0,3.666,5.981l.011.011a41.655,41.655,0,0,0,10.078,9.17,15.5,15.5,0,0,0,1.4.76c.409.2.794.4,1.124.6.045.023.091.057.136.079a2.46,2.46,0,0,0,1.124.284,2.427,2.427,0,0,0,1.725-.783l3.881-3.881a2.567,2.567,0,0,1,1.714-.851,2.311,2.311,0,0,1,1.634.828l.023.023L46.854,66A2.244,2.244,0,0,1,46.866,69.556Z" transform="translate(-0.344 -24.296)"/><path class="a" d="M246.2,88.965A14.606,14.606,0,0,1,258.1,100.858a1.523,1.523,0,0,0,1.509,1.271,2.019,2.019,0,0,0,.261-.023,1.534,1.534,0,0,0,1.26-1.77,17.661,17.661,0,0,0-14.391-14.391,1.54,1.54,0,0,0-1.77,1.248A1.516,1.516,0,0,0,246.2,88.965Z" transform="translate(-217.184 -76.174)"/><path class="a" d="M274.252,23.72a29.081,29.081,0,0,0-23.7-23.7,1.53,1.53,0,1,0-.5,3.019A25.976,25.976,0,0,1,271.233,24.22a1.523,1.523,0,0,0,1.509,1.271,2.023,2.023,0,0,0,.261-.023A1.5,1.5,0,0,0,274.252,23.72Z" transform="translate(-220.581 0)"/></g></g></svg>