<svg xmlns="http://www.w3.org/2000/svg" width="19.352" height="19.38" viewBox="0 0 19.352 19.38"><defs><style>.a{fill:#eaaf30;}</style></defs><g transform="translate(-0.344 -3.19)"><g transform="translate(0.344 3.19)"><path class="a" d="M15.647,38.29a1.906,1.906,0,0,0-1.383-.634,1.971,1.971,0,0,0-1.4.63l-1.293,1.288c-.106-.057-.213-.11-.315-.164-.147-.074-.286-.143-.4-.217a14.048,14.048,0,0,1-3.366-3.068,8.288,8.288,0,0,1-1.1-1.742c.335-.307.646-.626.949-.933.115-.115.229-.233.344-.348a1.877,1.877,0,0,0,0-2.83L6.558,29.157c-.127-.127-.258-.258-.38-.389-.245-.254-.5-.515-.769-.761a1.936,1.936,0,0,0-1.37-.6,2,2,0,0,0-1.391.6l-.008.008-1.391,1.4a2.992,2.992,0,0,0-.888,1.9,7.17,7.17,0,0,0,.524,3.035,17.611,17.611,0,0,0,3.129,5.219,19.248,19.248,0,0,0,6.409,5.019,9.986,9.986,0,0,0,3.6,1.063c.086,0,.176.008.258.008a3.082,3.082,0,0,0,2.36-1.014c0-.008.012-.012.016-.02a9.3,9.3,0,0,1,.716-.74c.176-.168.356-.344.532-.528a2.04,2.04,0,0,0,.618-1.415,1.966,1.966,0,0,0-.63-1.4ZM17.111,42.6s0,0,0,0c-.16.172-.323.327-.5.5a10.755,10.755,0,0,0-.789.818,1.972,1.972,0,0,1-1.538.65c-.061,0-.127,0-.188,0a8.871,8.871,0,0,1-3.19-.957,18.169,18.169,0,0,1-6.037-4.728,16.606,16.606,0,0,1-2.945-4.9,5.84,5.84,0,0,1-.458-2.56A1.878,1.878,0,0,1,2.03,30.2L3.425,28.8a.93.93,0,0,1,.622-.29.875.875,0,0,1,.6.286l.012.012c.25.233.487.474.736.732.127.131.258.262.389.4L6.9,31.055a.781.781,0,0,1,0,1.268c-.119.119-.233.237-.352.352-.344.352-.671.679-1.027,1-.008.008-.016.012-.02.02a.834.834,0,0,0-.213.928l.012.037a8.965,8.965,0,0,0,1.321,2.156l0,0a15.013,15.013,0,0,0,3.632,3.3,5.585,5.585,0,0,0,.5.274c.147.074.286.143.4.217.016.008.033.02.049.029a.887.887,0,0,0,.4.1.875.875,0,0,0,.622-.282l1.4-1.4a.925.925,0,0,1,.618-.307.833.833,0,0,1,.589.3l.008.008,2.254,2.254A.809.809,0,0,1,17.111,42.6Z" transform="translate(-0.344 -26.285)"/><path class="a" d="M245.4,87.021a5.264,5.264,0,0,1,4.287,4.287.549.549,0,0,0,.544.458.729.729,0,0,0,.094-.008.553.553,0,0,0,.454-.638,6.365,6.365,0,0,0-5.186-5.186.555.555,0,0,0-.638.45A.546.546,0,0,0,245.4,87.021Z" transform="translate(-234.939 -82.411)"/><path class="a" d="M257.957,8.549a10.481,10.481,0,0,0-8.54-8.54.551.551,0,1,0-.18,1.088,9.362,9.362,0,0,1,7.632,7.632.549.549,0,0,0,.544.458.729.729,0,0,0,.094-.008A.542.542,0,0,0,257.957,8.549Z" transform="translate(-238.614 0)"/></g></g></svg>