<svg xmlns="http://www.w3.org/2000/svg" width="64.595" height="64.595" viewBox="0 0 64.595 64.595"><defs><style>.a{fill:#fff;}</style></defs><path class="a" d="M63.586,62.577H61.943l-22.92-19.79a8.074,8.074,0,0,0,1.349-4.456s0-.006,0-.01V32.3a1.009,1.009,0,0,0,0-2.019H34.8V9.543a6.061,6.061,0,0,0,3.547-5.487c0-.007,0-.013,0-.02V1.009A1.008,1.008,0,0,0,37.346,0h-10.1A1.008,1.008,0,0,0,26.24,1.009V4.037c0,.007,0,.013,0,.02a6.061,6.061,0,0,0,3.515,5.471V30.285H24.225a1.009,1.009,0,1,0,0,2.019V38.32s0,.006,0,.01a8.059,8.059,0,0,0,1.378,4.5L2.653,62.577H1.009a1.009,1.009,0,1,0,0,2.019H63.586a1.009,1.009,0,0,0,0-2.019ZM28.258,3.028V2.019h8.078V3.028ZM28.4,5.047h7.787a4.017,4.017,0,0,1-7.787,0ZM32.3,10.093c.165,0,.327-.012.489-.024v2.043H31.778V10.067C31.949,10.081,32.122,10.093,32.3,10.093Zm-.52,4.037h1.008V30.285H31.778ZM26.244,38.351V32.3H38.351v6.048a6.046,6.046,0,0,1-.872,3.1L33,37.589a1.011,1.011,0,0,0-1.318,0L27.144,41.5A6.047,6.047,0,0,1,26.244,38.351Zm1.391,5.389s0,0,0,0,0,0,0,0l4.7-4.048L36.993,43.7h0l21.86,18.875H5.747Z"/><path class="a" d="M47.04,59h-.011a1.015,1.015,0,1,0,.011,0Z" transform="translate(0.428 0.549)"/><path class="a" d="M49.042,57h-.011a1.015,1.015,0,1,0,.011,0Z" transform="translate(0.447 0.53)"/><path class="a" d="M51.044,59h-.011a1.015,1.015,0,1,0,.011,0Z" transform="translate(0.465 0.549)"/></svg>