<svg xmlns="http://www.w3.org/2000/svg" width="80.085" height="65.106" viewBox="0 0 80.085 65.106"><defs><style>.a{fill:#fff;}</style></defs><g transform="translate(-2.499 -8.485)"><path class="a" d="M37.6,27.313H12.744a.488.488,0,1,0,0,.976H37.6a.488.488,0,1,0,0-.976Z" transform="translate(2.452 4.732)"/><path class="a" d="M37.6,31.169H12.744a.488.488,0,1,0,0,.976H37.6a.488.488,0,1,0,0-.976Z" transform="translate(2.452 5.701)"/><path class="a" d="M37.6,35.024H12.744a.488.488,0,1,0,0,.976H37.6a.488.488,0,1,0,0-.976Z" transform="translate(2.452 6.67)"/><path class="a" d="M20.055,47.72a4.877,4.877,0,1,0,4.9,4.877A4.895,4.895,0,0,0,20.055,47.72Zm0,7.876a3,3,0,1,1,3.025-3A3.015,3.015,0,0,1,20.055,55.6Z" transform="translate(3.18 9.86)"/><path class="a" d="M54.228,47.72a4.877,4.877,0,1,0,4.9,4.877A4.895,4.895,0,0,0,54.228,47.72Zm0,7.876a3,3,0,1,1,3.025-3A3.015,3.015,0,0,1,54.228,55.6Z" transform="translate(11.768 9.86)"/><path class="a" d="M81.645,71.714H72.187a11.076,11.076,0,0,0,4.758-11.388h4.7a.938.938,0,0,0,.938-.951c-.347-25.716.115,8.508-.276-20.355a3.45,3.45,0,0,0-3.441-3.407H76.522l-3.472-7.725a3.32,3.32,0,0,0-2.978-1.923H58.621a3.276,3.276,0,0,0-3.253,3.253V41.769H48.411L53.477,23a1.737,1.737,0,0,1,1.661-1.242h9.04a3.248,3.248,0,0,0,3.247-3.532h0a3.349,3.349,0,0,0-3.382-2.973H53.375a5.925,5.925,0,0,0-5.66,4.237L45.84,25.9c.049-.384.1-.765.121-1.164.093-2.337-.771-9.626-2.276-11.092s-3.555-.256-4.562-.667c-1.3-.526-1.3-2.477-6.541-2.087-2.753.209-3.163,0-4.833-1.119-6.15-4.094-6.285,2.793-8.231,3.546-.971.374-2.916-.645-4.241.891-1.024,1.188-.26,2.03-3.794,2.551A7.383,7.383,0,0,0,7.8,18.028c-1.747,1.383-2.761,4.521-1.474,7.939H3.438a.939.939,0,0,0-.894,1.223L9.143,47.9a.938.938,0,0,0,.821.651l5.925.463V54.1a11.089,11.089,0,0,0,1.157,17.615H3.439a.938.938,0,1,0,0,1.877H81.645a.938.938,0,1,0,0-1.877ZM66,71.714a9.256,9.256,0,1,1,9.281-9.257A9.28,9.28,0,0,1,66,71.714ZM76.4,58.449a11.15,11.15,0,0,0-20.8,0H53.208l3.314-9.035a1.571,1.571,0,0,1,1.469-1.026H74a1.57,1.57,0,0,1,1.468,1.026l3.314,9.035Zm-42.761,0a11.134,11.134,0,0,0-2.2-3.516H52.5l-1.289,3.516ZM66.415,27.843H70.07c.008,0,.015,0,.023,0a1.43,1.43,0,0,1,1.238.806l3.134,6.963H66.415V27.843Zm-7.794,0h5.917v7.774H57.246V29.227A1.392,1.392,0,0,1,58.621,27.842ZM8.965,19.5a5.8,5.8,0,0,1,2.792-.879c5.762-.85,3.821-3.418,5.661-3.418,2.4,0,3.343.6,5.237-2.886,1.32-2.428,1.744-2.518,4.052-.978,2.018,1.344,2.812,1.671,6.015,1.428,4.6-.342,3.569,1.093,5.694,1.955,1.554.632,3.316-.355,3.958.272s1.829,6.7,1.71,9.673a12.4,12.4,0,0,1-.129,1.3H8.349C7.3,23.742,7.312,20.808,8.965,19.5ZM4.722,27.843h41.8a.938.938,0,0,0,.9-.675l2.091-7.153a4.04,4.04,0,0,1,3.859-2.886H64.042a1.482,1.482,0,0,1,1.512,1.254,1.373,1.373,0,0,1-1.376,1.5h-9.04a3.629,3.629,0,0,0-3.467,2.611l-7.252,26.87L10.74,46.73ZM17.766,49.162l27.282,2.131c.025,0,.049,0,.074,0a.938.938,0,0,0,.905-.694L47.9,43.646h8.4a.939.939,0,0,0,.938-.938V37.493c6.172,0,14.473,0,21.622,0a1.55,1.55,0,0,1,1.564,1.552l.012.851H76.215a.939.939,0,0,0-.938.938V44.81a.939.939,0,0,0,.938.938h4.308l.168,12.445-3.457-9.426A3.453,3.453,0,0,0,74,46.511H57.991a3.454,3.454,0,0,0-3.231,2.256l-1.573,4.289h-24a11.1,11.1,0,0,0-11.421-.292v-3.6ZM80.5,43.871H77.153v-2.1h3.315ZM13.954,62.457a9.281,9.281,0,1,1,9.282,9.257A9.279,9.279,0,0,1,13.954,62.457Zm15.471,9.257a11.076,11.076,0,0,0,4.758-11.388H55.049a11.075,11.075,0,0,0,4.758,11.388Z"/></g></svg>