<svg xmlns="http://www.w3.org/2000/svg" width="95.357" height="59.293" viewBox="0 0 95.357 59.293"><defs><style>.a{fill:#fff;}</style></defs><path class="a" d="M93.156,32.209l-4.094-8.378a10.657,10.657,0,0,0-8.883-5.551H68.959a6.725,6.725,0,0,0-3.574,1.04v-2.89A10.243,10.243,0,0,0,55.157,6.195h-32.9A10.248,10.248,0,0,0,12.018,16.429v4.293H8.859v3.208h25.47V20.723H15.223V16.429A7.036,7.036,0,0,1,22.25,9.4H55.16a7.031,7.031,0,0,1,7.02,7.027V53.651H43.556a10.216,10.216,0,0,0-20.185,0H22.253a7.036,7.036,0,0,1-7.027-7.027V39.166H25.7v-3.2H.23v3.2H12.015v7.459A10.252,10.252,0,0,0,22.25,56.859h1.122a10.216,10.216,0,0,0,20.185,0H67.928a10.216,10.216,0,0,0,20.185,0h.7a6.787,6.787,0,0,0,6.779-6.779V42.746A28.058,28.058,0,0,0,93.156,32.209ZM33.467,62.277a7.023,7.023,0,1,1,7.027-7.027A7.036,7.036,0,0,1,33.467,62.277Zm46.159-40.8h.556a7.543,7.543,0,0,1,6,3.755l4.088,8.378a18.708,18.708,0,0,1,.9,2.349H79.629V21.479Zm-1.605,40.8a7.023,7.023,0,1,1,7.027-7.027A7.031,7.031,0,0,1,78.021,62.277Zm14.361-12.2a3.583,3.583,0,0,1-3.574,3.574h-.7a10.216,10.216,0,0,0-20.185,0h-2.54V25.058a3.584,3.584,0,0,1,3.574-3.58h7.459V37.563a1.6,1.6,0,0,0,1.6,1.6H91.98a20.048,20.048,0,0,1,.4,3.58Z" transform="translate(-0.23 -6.195)"/></svg>