<svg xmlns="http://www.w3.org/2000/svg" width="78.014" height="48.506" viewBox="0 0 78.014 48.506"><defs><style>.a{fill:#fff;}</style></defs><g transform="translate(-34.24 -2721.191)"><g transform="translate(34.24 2721.191)"><path class="a" d="M1286.447,2681.974a8.768,8.768,0,0,1,8.7,7.692h2.715v-9.416a4.6,4.6,0,0,0-4.595-4.584H1289.1a1.073,1.073,0,0,1-1.074-1.074v-10.448c0-2.736-2.55-4.584-5.121-4.584h-9.447v30.106h4.3A8.762,8.762,0,0,1,1286.447,2681.974Zm-63.374-3.686h5.72a11.135,11.135,0,0,1-4.543-8.941v-3.758a11.132,11.132,0,0,1,7.7-10.562v-2.953a1.067,1.067,0,0,1,1.074-1.074h29.229a1.067,1.067,0,0,1,1.074,1.074v3.614a11.122,11.122,0,0,1,6.092,9.9v3.758a11.1,11.1,0,0,1-4.553,8.941h6.433v-19.8a1.073,1.073,0,0,1,1.074-1.074h10.531c3.758,0,7.279,2.808,7.279,6.732v9.375h3.087a6.761,6.761,0,0,1,6.742,6.732v10.49a1.073,1.073,0,0,1-1.074,1.074h-3.789a8.764,8.764,0,0,1-17.4,0c-4.7,0-9.4-.031-14.094-.031a8.766,8.766,0,0,1-17.408,0h-1.022a8.772,8.772,0,0,1-17.418,0h-4.739a1.079,1.079,0,0,1-1.074-1.074v-11.347A1.073,1.073,0,0,1,1223.074,2678.289Zm63.374,5.833a6.618,6.618,0,1,0,6.618,6.618v-.258h0v-.051l-.01-.032v-.082h0l-.031-.331h0A6.623,6.623,0,0,0,1286.447,2684.122Zm-25.265-29.632v-1.342H1234.1v1.342Zm-25.843,23.8h22.983a8.974,8.974,0,0,0,8.952-8.941v-3.758a8.974,8.974,0,0,0-8.952-8.941h-22.983a8.965,8.965,0,0,0-8.941,8.941v3.758A8.972,8.972,0,0,0,1235.339,2678.289Zm7.8,12.452a6.613,6.613,0,1,0-6.608,6.618A6.6,6.6,0,0,0,1243.135,2690.74Zm2.086-1.1h1.043c1.28-10.149,16.106-10.16,17.387,0h7.651v-9.2h-47.154v9.2h3.676a8.769,8.769,0,0,1,17.4,0Zm16.355,1.1a6.618,6.618,0,1,0-6.618,6.618A6.6,6.6,0,0,0,1261.575,2690.74Z" transform="translate(-1222 -2651)"/><path class="a" d="M6393.074,3566h6.205c2.695,0,4.419,2.6,4.419,5.08v9.064a1.082,1.082,0,0,1-1.073,1.084h-9.551a1.082,1.082,0,0,1-1.074-1.084v-13.071A1.079,1.079,0,0,1,6393.074,3566Zm6.205,2.147h-5.121v10.924h7.392v-7.991C6401.55,3569.811,6400.756,3568.148,6399.279,3568.148Z" transform="translate(-6338.621 -3556.553)"/></g></g></svg>