<svg xmlns="http://www.w3.org/2000/svg" width="169" height="56" viewBox="0 0 169 56"><defs><style>.a,.b,.c{fill:#fff;}.a{font-size:8px;}.a,.b{font-family:Avenir-Regular, Avenir;}.b{font-size:18px;}</style></defs><g transform="translate(-139 -2259)"><rect width="169" height="56" rx="14" transform="translate(139 2259)"/><g transform="translate(4 2.65)"><g transform="translate(140 2259.351)"><g transform="translate(0 -4)"><text class="a" transform="translate(61 21)"><tspan x="0" y="0">Available on the</tspan></text><text class="b" transform="translate(59 39)"><tspan x="0" y="0">App Store</tspan></text></g></g><g transform="translate(119.664 2266.351)"><g transform="translate(52.197)"><path class="c" d="M254.907,0a8.495,8.495,0,0,0-5.5,2.977,7.378,7.378,0,0,0-1.8,5.733,7.17,7.17,0,0,0,5.55-2.835A7.965,7.965,0,0,0,254.907,0Z" transform="translate(-247.522)"/></g><g transform="translate(37.336 8.473)"><path class="c" d="M67.209,123.512a9.164,9.164,0,0,0-6.916-3.672c-3.247,0-4.62,1.554-6.876,1.554-2.326,0-4.093-1.55-6.9-1.55a9.389,9.389,0,0,0-7.557,4.568c-2.618,4.059-2.17,11.69,2.072,18.19,1.518,2.326,3.545,4.941,6.2,4.964,2.36.023,3.025-1.514,6.222-1.529s3.8,1.55,6.158,1.525c2.654-.02,4.792-2.919,6.31-5.244a26.083,26.083,0,0,0,2.337-4.389A7.981,7.981,0,0,1,67.209,123.512Z" transform="translate(-37.336 -119.84)"/></g></g></g></g></svg>