<svg xmlns="http://www.w3.org/2000/svg" width="181" height="56" viewBox="0 0 181 56"><defs><style>.a,.b{fill:#fff;font-family:Avenir-Regular, Avenir;}.a{font-size:8px;}.b{font-size:18px;}.c{fill:#32bbff;}.d{fill:#2c9fd9;}.e{fill:#29cc5e;}.f{fill:#d93f21;}.g{fill:#ffd500;}.h{fill:#fa0;}</style></defs><g transform="translate(-139 -2259)"><rect width="181" height="56" rx="14" transform="translate(139 2259)"/><g transform="translate(0 2)"><g transform="translate(140 2259)"><g transform="translate(0 -4)"><text class="a" transform="translate(90 21)"><tspan x="-30.088" y="0">Android App On</tspan></text><text class="b" transform="translate(110 39)"><tspan x="-49.527" y="0">Google play</tspan></text></g></g><g transform="translate(135.451 2268)"><g transform="translate(23.549 0.001)"><path class="c" d="M70.494,11.845C66.487,9.6,60.054,6,50.077.417A2.406,2.406,0,0,0,47.962.141L65.08,17.259Z" transform="translate(-46.317 -0.012)"/><path class="c" d="M25.194,1.93a2.46,2.46,0,0,0-.364.156,2.407,2.407,0,0,0-1.281,2.14V33.87a2.407,2.407,0,0,0,1.281,2.14,2.489,2.489,0,0,0,.364.156L42.312,19.048Z" transform="translate(-23.549 -1.801)"/><path class="c" d="M65.074,255.98,47.956,273.1a2.381,2.381,0,0,0,2.116-.276c9.676-5.418,16.036-8.975,20.09-11.235l.333-.187Z" transform="translate(-46.311 -238.733)"/></g><path class="d" d="M23.549,255.98V270.8a2.407,2.407,0,0,0,1.281,2.14,2.493,2.493,0,0,0,.364.156L42.312,255.98Z" transform="translate(0 -238.732)"/><path class="e" d="M45.04.406A2.413,2.413,0,0,0,42.561.286L59.783,17.508l5.674-5.674C61.45,9.592,55.017,5.993,45.04.406Z" transform="translate(-17.731 0)"/><path class="f" d="M59.783,252.126,42.561,269.348a2.4,2.4,0,0,0,2.479-.121c9.676-5.418,16.036-8.975,20.09-11.235l.333-.187Z" transform="translate(-17.731 -235.138)"/><path class="g" d="M307.385,178.458a2.4,2.4,0,0,0-1.236-2.11s-1.536-.857-6.245-3.491l-5.6,5.6,5.606,5.606c4.657-2.615,6.239-3.5,6.239-3.5A2.4,2.4,0,0,0,307.385,178.458Z" transform="translate(-252.51 -161.21)"/><path class="h" d="M306.149,258.09a2.4,2.4,0,0,0,1.236-2.11H294.3l5.606,5.606C304.566,258.972,306.149,258.09,306.149,258.09Z" transform="translate(-252.51 -238.732)"/></g></g></g></svg>